<svg viewBox="0 0 24 24" fill="currentColor" xmlns="http://www.w3.org/2000/svg"><path style="fill:#2563eb;fill-opacity:1" d="M4.875 4.117v.002a.75.75 0 0 0-.75.748v.75a.75.75 0 0 0 .75.75c2.869 0 5.516.948 7.646 2.547a34.04 34.04 0 0 1 .352-.096 34.04 34.04 0 0 1 2.275-.45.422.422 0 0 1 .114-.003.422.422 0 0 1 .09.022 14.95 14.95 0 0 0-10.477-4.27Z"/><path style="fill:#db2777;fill-opacity:1" d="m4.78 13.156 3.574 1.893.457-.457a6 6 0 0 0-3.92-1.46v.003a.75.75 0 0 0-.112.021z"/><path style="fill:#2563eb;fill-opacity:1" d="M4.89 17.633v.002a.75.75 0 0 0-.75.748v.75a.75.75 0 0 0 .75.75h.75a.75.75 0 0 0 .75-.75 1.5 1.5 0 0 0-1.5-1.5zm1.536-6.6a34.04 34.04 0 0 1 2.015-.853 34.04 34.04 0 0 1 1.204-.414 10.444 10.444 0 0 0-4.77-1.149v.002a.75.75 0 0 0-.75.748v.75a.75.75 0 0 0 .75.75 8.25 8.25 0 0 1 1.55.166z"/><path style="fill:#db2777;fill-opacity:1" d="m10.398 13.004 1.342-1.342a.422.422 0 0 1 .233-.119.422.422 0 0 1 .2.031 10.53 10.53 0 0 0-2.528-1.808 34.04 34.04 0 0 0-1.204.414 34.04 34.04 0 0 0-2.015.853 8.25 8.25 0 0 1 3.972 1.97z"/><path style="fill:#2563eb;fill-opacity:1" d="m10.996 13.602 1.342-1.342a.422.422 0 0 0 .119-.233.422.422 0 0 0-.031-.203 10.56 10.56 0 0 0-.252-.25.422.422 0 0 0-.201-.031.422.422 0 0 0-.233.12l-1.342 1.34a8.25 8.25 0 0 1 .598.599z"/><path style="fill:#db2777;fill-opacity:1" d="M10.873 19.28a.75.75 0 0 0 .018-.147 6 6 0 0 0-1.48-3.945l-.46.458z"/><path style="fill:#2563eb;fill-opacity:1" d="m10.873 19.28-1.922-3.634.46-.459a6 6 0 0 0-.6-.595l-.457.457-3.575-1.893a.75.75 0 0 0-.638.727v.75a.75.75 0 0 0 .75.75 3.75 3.75 0 0 1 3.75 3.75.75.75 0 0 0 .75.75h.75a.75.75 0 0 0 .732-.604z"/><path style="fill:#db2777;fill-opacity:1" d="M14.234 14.36a10.53 10.53 0 0 0-1.808-2.536.422.422 0 0 1 .031.203.422.422 0 0 1-.12.233l-1.34 1.342a8.25 8.25 0 0 1 1.966 3.982 34.042 34.042 0 0 0 .857-2.025 34.042 34.042 0 0 0 .414-1.2z"/><path style="fill:#2563eb;fill-opacity:1" d="M14.234 14.36a34.042 34.042 0 0 1-.414 1.199 34.042 34.042 0 0 1-.857 2.025 8.25 8.25 0 0 1 .162 1.533.75.75 0 0 0 .75.75h.75a.75.75 0 0 0 .75-.75c0-1.713-.413-3.329-1.14-4.758zm1.379-5.71a.422.422 0 0 1 .022.088.422.422 0 0 1-.002.114 34.042 34.042 0 0 1-.451 2.275 34.042 34.042 0 0 1-.096.353 12.696 12.696 0 0 1 2.539 7.637.75.75 0 0 0 .75.75h.75a.75.75 0 0 0 .75-.75A14.95 14.95 0 0 0 15.613 8.65z"/><path style="fill:#db2777;fill-opacity:1" d="M15.352 8.387a.422.422 0 0 0-.09-.022.422.422 0 0 0-.114.002 34.04 34.04 0 0 0-2.275.451 34.04 34.04 0 0 0-.352.096c.972.73 1.836 1.594 2.565 2.566a34.042 34.042 0 0 0 .096-.353 34.042 34.042 0 0 0 .45-2.275.422.422 0 0 0 .003-.114.422.422 0 0 0-.022-.088 15.244 15.244 0 0 0-.261-.263Z"/></svg>